<?xml version="1.0" standalone="no"?>
<!DOCTYPE svg PUBLIC "-//W3C//DTD SVG 20010904//EN"
 "http://www.w3.org/TR/2001/REC-SVG-20010904/DTD/svg10.dtd">
<svg version="1.0" xmlns="http://www.w3.org/2000/svg"
 width="380.000000pt" height="380.000000pt" viewBox="0 0 380.000000 380.000000"
 preserveAspectRatio="xMidYMid meet">
<metadata>
Created by potrace 1.11, written by Peter Selinger 2001-2013
</metadata>
<g transform="translate(0.000000,380.000000) scale(0.100000,-0.100000)"
fill="#000000" stroke="none">
<path d="M246 3112 c-49 -23 -91 -44 -93 -46 -6 -5 22 -116 29 -116 4 0 34 13
65 30 l58 29 3 -274 c2 -209 5 -275 15 -276 6 0 41 -1 77 -2 l65 0 0 348 0
349 -64 1 c-56 0 -76 -5 -155 -43z"/>
<path d="M1017 3070 c-10 -4 -12 -67 -12 -262 0 -141 3 -260 7 -264 5 -5 2512
-10 2616 -5 10 1 12 58 10 268 l-3 267 -1303 1 c-716 0 -1308 -2 -1315 -5z"/>
<path d="M253 2265 c-91 -31 -97 -39 -74 -100 10 -28 23 -50 27 -49 5 0 32 10
59 23 98 45 195 9 195 -72 -1 -58 -37 -115 -132 -210 -51 -51 -112 -108 -135
-127 -40 -32 -43 -37 -43 -85 l0 -51 238 2 c130 1 239 2 242 3 5 1 5 99 1 122
0 3 -49 6 -108 7 -162 0 -153 -2 -113 29 61 48 146 142 174 194 74 134 24 281
-108 322 -70 22 -140 20 -223 -8z"/>
<path d="M1006 1948 c1 -145 2 -265 3 -268 0 -3 593 -6 1316 -6 l1315 1 0 267
0 268 -1318 0 -1317 0 1 -262z"/>
<path d="M277 1364 c-76 -18 -99 -31 -93 -52 3 -9 10 -36 16 -58 l10 -42 48
18 c61 23 154 22 179 -2 26 -27 25 -73 -4 -99 -19 -19 -38 -24 -91 -27 l-67
-4 -2 -59 -2 -59 55 0 c67 0 117 -20 140 -55 24 -36 5 -99 -36 -120 -39 -20
-115 -19 -183 4 l-57 18 -7 -21 c-7 -23 -8 -27 -18 -72 -7 -31 -6 -32 46 -50
39 -13 83 -19 154 -19 90 0 106 3 158 29 158 77 168 258 19 335 l-33 17 38 24
c49 32 83 97 76 147 -7 56 -33 94 -86 127 -40 25 -59 29 -125 32 -42 1 -103
-4 -135 -12z"/>
<path d="M1008 1277 c-4 -10 -3 -499 1 -519 0 -5 593 -8 1316 -8 l1315 0 0
269 0 270 -1314 0 c-1001 0 -1315 -3 -1318 -12z"/>
</g>
</svg>
